<?xml version="1.0" encoding="utf-8"?>
<!-- Generator: Adobe Illustrator 25.2.1, SVG Export Plug-In . SVG Version: 6.00 Build 0)  -->
<svg version="1.1" id="Layer_1" xmlns="http://www.w3.org/2000/svg" xmlns:xlink="http://www.w3.org/1999/xlink" x="0px" y="0px"
	 viewBox="0 0 222 64" style="enable-background:new 0 0 222 64;" xml:space="preserve">
<style type="text/css">
	.st0{fill:#164994;}
	.st1{fill:#F26B4B;}
	.st2{fill:#AB58A2;}
	.st3{fill:#3CC4E3;}
</style>
<g>
	<g>
		<path class="st0" d="M145.49,43.62h-0.04c-0.25,0.39-0.56,0.68-0.95,0.85c-0.38,0.18-0.8,0.27-1.26,0.27
			c-0.32,0-0.62-0.04-0.93-0.13c-0.3-0.09-0.57-0.22-0.8-0.39c-0.23-0.17-0.42-0.39-0.57-0.65c-0.14-0.26-0.22-0.56-0.22-0.9
			c0-0.37,0.07-0.69,0.2-0.95c0.13-0.26,0.31-0.48,0.54-0.66c0.22-0.18,0.49-0.32,0.78-0.42c0.3-0.11,0.6-0.18,0.93-0.24
			c0.32-0.05,0.64-0.09,0.97-0.1c0.32-0.01,0.63-0.02,0.92-0.02h0.43v-0.19c0-0.43-0.15-0.75-0.44-0.97
			c-0.3-0.22-0.67-0.32-1.13-0.32c-0.36,0-0.7,0.06-1.02,0.19s-0.59,0.3-0.82,0.52l-0.9-0.9c0.38-0.39,0.83-0.67,1.34-0.85
			c0.51-0.17,1.04-0.26,1.58-0.26c0.49,0,0.9,0.06,1.23,0.16c0.33,0.11,0.61,0.25,0.83,0.42c0.22,0.17,0.39,0.37,0.51,0.6
			c0.12,0.22,0.21,0.45,0.26,0.68c0.05,0.23,0.08,0.45,0.09,0.67c0.01,0.22,0.01,0.4,0.01,0.57v3.96h-1.55V43.62z M145.39,41.48
			h-0.36c-0.24,0-0.51,0.01-0.8,0.03c-0.3,0.02-0.58,0.06-0.84,0.14c-0.26,0.07-0.49,0.18-0.67,0.32c-0.18,0.14-0.27,0.33-0.27,0.58
			c0,0.16,0.04,0.3,0.11,0.41c0.07,0.11,0.16,0.2,0.28,0.28c0.11,0.08,0.24,0.13,0.39,0.16c0.14,0.03,0.29,0.05,0.43,0.05
			c0.59,0,1.03-0.14,1.31-0.42c0.28-0.28,0.42-0.67,0.42-1.15V41.48z"/>
		<path class="st0" d="M148.89,37.68h1.64v1.1h0.03c0.16-0.34,0.41-0.64,0.75-0.9c0.33-0.25,0.79-0.38,1.36-0.38
			c0.46,0,0.85,0.08,1.17,0.23c0.32,0.15,0.58,0.35,0.78,0.6c0.2,0.25,0.34,0.54,0.43,0.86c0.09,0.33,0.13,0.66,0.13,1.02v4.35
			h-1.72v-3.49c0-0.19-0.01-0.4-0.03-0.64c-0.02-0.23-0.07-0.45-0.15-0.66c-0.08-0.21-0.21-0.38-0.38-0.52
			c-0.17-0.14-0.41-0.21-0.7-0.21c-0.29,0-0.53,0.05-0.72,0.14c-0.2,0.1-0.36,0.22-0.49,0.39c-0.13,0.16-0.22,0.35-0.28,0.56
			c-0.06,0.21-0.09,0.43-0.09,0.66v3.76h-1.72V37.68z"/>
		<path class="st0" d="M156.91,35.34c0-0.28,0.1-0.52,0.31-0.72c0.21-0.21,0.47-0.31,0.78-0.31c0.32,0,0.58,0.1,0.8,0.29
			c0.22,0.2,0.32,0.44,0.32,0.74c0,0.3-0.11,0.54-0.32,0.74c-0.22,0.2-0.48,0.29-0.8,0.29c-0.32,0-0.58-0.1-0.78-0.31
			C157.01,35.86,156.91,35.62,156.91,35.34z M157.15,37.68h1.72v6.88h-1.72V37.68z"/>
		<path class="st0" d="M160.78,37.68h1.64v1.08h0.03c0.15-0.32,0.4-0.61,0.74-0.87c0.34-0.25,0.8-0.38,1.37-0.38
			c1.08,0,1.8,0.43,2.15,1.28c0.25-0.44,0.56-0.76,0.93-0.97c0.37-0.21,0.82-0.31,1.33-0.31c0.46,0,0.85,0.08,1.16,0.23
			c0.32,0.15,0.57,0.36,0.77,0.63c0.2,0.27,0.34,0.58,0.42,0.94c0.09,0.36,0.13,0.74,0.13,1.15v4.1h-1.72v-3.9
			c0-0.21-0.02-0.41-0.06-0.61c-0.04-0.2-0.11-0.37-0.2-0.52c-0.1-0.15-0.22-0.27-0.39-0.35c-0.16-0.09-0.37-0.13-0.63-0.13
			c-0.27,0-0.49,0.05-0.68,0.15c-0.19,0.1-0.34,0.23-0.46,0.4c-0.12,0.17-0.21,0.36-0.26,0.57c-0.05,0.22-0.08,0.43-0.08,0.65v3.73
			h-1.72v-4.1c0-0.43-0.09-0.77-0.27-1.03c-0.18-0.25-0.48-0.38-0.9-0.38c-0.29,0-0.53,0.05-0.72,0.14c-0.2,0.1-0.36,0.22-0.49,0.39
			c-0.13,0.16-0.22,0.35-0.28,0.56c-0.06,0.21-0.09,0.43-0.09,0.66v3.76h-1.72V37.68z"/>
		<path class="st0" d="M177.63,43.62h-0.04c-0.25,0.39-0.56,0.68-0.95,0.85c-0.38,0.18-0.8,0.27-1.26,0.27
			c-0.32,0-0.62-0.04-0.93-0.13c-0.3-0.09-0.57-0.22-0.8-0.39c-0.23-0.17-0.42-0.39-0.57-0.65c-0.14-0.26-0.22-0.56-0.22-0.9
			c0-0.37,0.07-0.69,0.2-0.95c0.13-0.26,0.31-0.48,0.54-0.66c0.22-0.18,0.49-0.32,0.78-0.42c0.3-0.11,0.6-0.18,0.93-0.24
			c0.32-0.05,0.64-0.09,0.97-0.1c0.32-0.01,0.63-0.02,0.92-0.02h0.43v-0.19c0-0.43-0.15-0.75-0.44-0.97
			c-0.3-0.22-0.67-0.32-1.13-0.32c-0.36,0-0.7,0.06-1.02,0.19s-0.59,0.3-0.82,0.52l-0.9-0.9c0.38-0.39,0.83-0.67,1.34-0.85
			c0.51-0.17,1.04-0.26,1.58-0.26c0.49,0,0.9,0.06,1.23,0.16c0.33,0.11,0.61,0.25,0.83,0.42c0.22,0.17,0.39,0.37,0.51,0.6
			c0.12,0.22,0.21,0.45,0.26,0.68c0.05,0.23,0.08,0.45,0.09,0.67c0.01,0.22,0.01,0.4,0.01,0.57v3.96h-1.55V43.62z M177.53,41.48
			h-0.36c-0.24,0-0.51,0.01-0.8,0.03c-0.3,0.02-0.58,0.06-0.84,0.14c-0.26,0.07-0.49,0.18-0.67,0.32c-0.18,0.14-0.27,0.33-0.27,0.58
			c0,0.16,0.04,0.3,0.11,0.41c0.07,0.11,0.16,0.2,0.28,0.28c0.11,0.08,0.24,0.13,0.39,0.16c0.14,0.03,0.29,0.05,0.43,0.05
			c0.59,0,1.03-0.14,1.31-0.42c0.28-0.28,0.42-0.67,0.42-1.15V41.48z"/>
		<path class="st0" d="M181.06,33.72h1.72v10.84h-1.72V33.72z"/>
	</g>
	<g>
		<path class="st0" d="M142.91,54.52h0.03c0.13-0.29,0.37-0.55,0.71-0.78c0.34-0.23,0.78-0.35,1.31-0.35c0.46,0,0.85,0.08,1.17,0.23
			c0.32,0.15,0.58,0.35,0.78,0.6c0.2,0.25,0.34,0.54,0.43,0.86c0.09,0.33,0.13,0.66,0.13,1.02v4.35h-1.72v-3.49
			c0-0.19-0.01-0.4-0.03-0.64c-0.02-0.23-0.07-0.45-0.15-0.66c-0.08-0.21-0.21-0.38-0.38-0.52c-0.17-0.14-0.41-0.21-0.7-0.21
			c-0.29,0-0.53,0.05-0.72,0.14c-0.2,0.1-0.36,0.22-0.49,0.39c-0.13,0.16-0.22,0.35-0.28,0.56c-0.06,0.21-0.09,0.43-0.09,0.66v3.76
			h-1.72V49.6h1.72V54.52z"/>
		<path class="st0" d="M149.08,57c0-0.55,0.1-1.04,0.29-1.48c0.2-0.44,0.46-0.82,0.8-1.14c0.33-0.32,0.73-0.56,1.19-0.73
			c0.46-0.17,0.95-0.26,1.46-0.26c0.52,0,1,0.09,1.46,0.26c0.46,0.17,0.86,0.42,1.19,0.73c0.33,0.32,0.6,0.7,0.8,1.14
			c0.2,0.44,0.29,0.94,0.29,1.48s-0.1,1.04-0.29,1.48c-0.2,0.44-0.46,0.82-0.8,1.14c-0.33,0.32-0.73,0.56-1.19,0.73
			c-0.46,0.17-0.95,0.26-1.46,0.26c-0.52,0-1-0.09-1.46-0.26c-0.46-0.17-0.86-0.42-1.19-0.73c-0.33-0.32-0.6-0.7-0.8-1.14
			C149.18,58.04,149.08,57.54,149.08,57z M150.8,57c0,0.27,0.05,0.53,0.14,0.77c0.09,0.25,0.22,0.47,0.4,0.66
			c0.18,0.19,0.39,0.34,0.64,0.46c0.25,0.11,0.53,0.17,0.85,0.17s0.6-0.06,0.85-0.17c0.25-0.11,0.46-0.27,0.64-0.46
			c0.18-0.19,0.31-0.41,0.4-0.66c0.09-0.25,0.14-0.51,0.14-0.77c0-0.27-0.05-0.53-0.14-0.77c-0.09-0.25-0.22-0.47-0.4-0.66
			c-0.18-0.19-0.39-0.34-0.64-0.46c-0.25-0.11-0.53-0.17-0.85-0.17s-0.6,0.06-0.85,0.17c-0.25,0.11-0.46,0.27-0.64,0.46
			c-0.18,0.19-0.31,0.41-0.4,0.66C150.84,56.47,150.8,56.73,150.8,57z"/>
		<path class="st0" d="M161.84,55.46c-0.33-0.47-0.78-0.7-1.35-0.7c-0.23,0-0.45,0.06-0.67,0.17c-0.22,0.11-0.33,0.3-0.33,0.56
			c0,0.21,0.09,0.36,0.27,0.46c0.18,0.1,0.41,0.18,0.69,0.24c0.28,0.07,0.58,0.14,0.9,0.21c0.32,0.07,0.62,0.18,0.9,0.33
			c0.28,0.15,0.51,0.35,0.69,0.61c0.18,0.26,0.27,0.61,0.27,1.06c0,0.41-0.09,0.76-0.27,1.04c-0.18,0.28-0.41,0.51-0.69,0.68
			c-0.28,0.17-0.6,0.3-0.95,0.37c-0.35,0.08-0.71,0.11-1.06,0.11c-0.54,0-1.03-0.08-1.48-0.23c-0.45-0.15-0.85-0.43-1.2-0.83
			l1.15-1.08c0.22,0.25,0.46,0.45,0.71,0.61c0.25,0.16,0.56,0.24,0.93,0.24c0.12,0,0.25-0.01,0.39-0.04
			c0.13-0.03,0.26-0.08,0.37-0.14c0.11-0.07,0.21-0.15,0.28-0.25c0.07-0.1,0.11-0.22,0.11-0.35c0-0.24-0.09-0.42-0.27-0.53
			c-0.18-0.11-0.41-0.21-0.69-0.28c-0.28-0.07-0.58-0.14-0.9-0.2c-0.32-0.06-0.62-0.16-0.9-0.3c-0.28-0.14-0.51-0.33-0.69-0.58
			c-0.18-0.25-0.27-0.59-0.27-1.03c0-0.38,0.08-0.71,0.24-1c0.16-0.28,0.37-0.51,0.62-0.7c0.26-0.18,0.55-0.32,0.89-0.4
			c0.33-0.09,0.67-0.13,1.02-0.13c0.46,0,0.91,0.08,1.36,0.24c0.45,0.16,0.81,0.43,1.09,0.81L161.84,55.46z"/>
		<path class="st0" d="M164.54,53.56h1.64v1.03h0.03c0.25-0.42,0.58-0.73,1-0.92c0.42-0.19,0.87-0.29,1.36-0.29
			c0.53,0,1,0.09,1.42,0.28c0.42,0.19,0.78,0.44,1.08,0.77c0.3,0.33,0.52,0.71,0.67,1.15c0.15,0.44,0.23,0.91,0.23,1.42
			c0,0.51-0.08,0.98-0.24,1.42c-0.16,0.44-0.39,0.82-0.68,1.15c-0.29,0.33-0.64,0.58-1.05,0.77c-0.41,0.19-0.86,0.28-1.35,0.28
			c-0.33,0-0.61-0.03-0.86-0.1c-0.25-0.07-0.47-0.15-0.66-0.26c-0.19-0.11-0.35-0.22-0.49-0.34c-0.13-0.12-0.24-0.24-0.33-0.35
			h-0.04v4.15h-1.72V53.56z M170.25,57c0-0.27-0.05-0.53-0.14-0.77c-0.09-0.25-0.22-0.47-0.4-0.66c-0.18-0.19-0.39-0.34-0.64-0.46
			c-0.25-0.11-0.53-0.17-0.85-0.17s-0.6,0.06-0.85,0.17c-0.25,0.11-0.46,0.27-0.64,0.46c-0.18,0.19-0.31,0.41-0.4,0.66
			c-0.09,0.25-0.14,0.51-0.14,0.77c0,0.27,0.05,0.53,0.14,0.77c0.09,0.25,0.22,0.47,0.4,0.66c0.18,0.19,0.39,0.34,0.64,0.46
			c0.25,0.11,0.53,0.17,0.85,0.17s0.6-0.06,0.85-0.17c0.25-0.11,0.46-0.27,0.64-0.46c0.18-0.19,0.31-0.41,0.4-0.66
			C170.2,57.53,170.25,57.27,170.25,57z"/>
		<path class="st0" d="M173.36,51.22c0-0.28,0.1-0.52,0.31-0.72c0.21-0.21,0.47-0.31,0.78-0.31s0.58,0.1,0.8,0.29
			c0.22,0.2,0.32,0.44,0.32,0.74c0,0.3-0.11,0.54-0.32,0.74c-0.22,0.2-0.48,0.29-0.8,0.29s-0.58-0.1-0.78-0.31
			C173.46,51.74,173.36,51.5,173.36,51.22z M173.6,53.56h1.72v6.88h-1.72V53.56z"/>
		<path class="st0" d="M176.5,55.02v-1.46h1.42v-1.99h1.72v1.99h1.89v1.46h-1.89v3.01c0,0.34,0.06,0.62,0.19,0.82
			c0.13,0.2,0.38,0.3,0.77,0.3c0.15,0,0.32-0.02,0.5-0.05c0.18-0.03,0.32-0.09,0.43-0.16v1.45c-0.18,0.09-0.4,0.15-0.67,0.18
			c-0.26,0.03-0.49,0.05-0.7,0.05c-0.46,0-0.83-0.05-1.13-0.15c-0.29-0.1-0.52-0.25-0.69-0.46c-0.17-0.21-0.28-0.46-0.34-0.77
			c-0.06-0.31-0.09-0.66-0.09-1.06v-3.16H176.5z"/>
		<path class="st0" d="M187.19,59.5h-0.04c-0.25,0.39-0.56,0.68-0.95,0.85c-0.38,0.18-0.8,0.27-1.26,0.27
			c-0.32,0-0.62-0.04-0.93-0.13c-0.3-0.09-0.57-0.22-0.8-0.39c-0.23-0.17-0.42-0.39-0.57-0.65c-0.14-0.26-0.22-0.56-0.22-0.9
			c0-0.37,0.07-0.69,0.2-0.95c0.13-0.26,0.31-0.48,0.54-0.66c0.22-0.18,0.49-0.32,0.78-0.42c0.3-0.11,0.6-0.18,0.93-0.24
			c0.32-0.05,0.64-0.09,0.97-0.1c0.32-0.01,0.63-0.02,0.92-0.02h0.43v-0.19c0-0.43-0.15-0.75-0.44-0.97
			c-0.3-0.22-0.67-0.32-1.13-0.32c-0.36,0-0.7,0.06-1.02,0.19c-0.32,0.13-0.59,0.3-0.82,0.52l-0.9-0.9
			c0.38-0.39,0.83-0.67,1.34-0.85c0.51-0.17,1.04-0.26,1.58-0.26c0.49,0,0.9,0.06,1.23,0.16c0.33,0.11,0.61,0.25,0.83,0.42
			c0.22,0.17,0.39,0.37,0.51,0.6c0.12,0.22,0.21,0.45,0.26,0.68c0.05,0.23,0.08,0.45,0.09,0.67c0.01,0.22,0.01,0.4,0.01,0.57v3.96
			h-1.55V59.5z M187.09,57.36h-0.36c-0.24,0-0.51,0.01-0.8,0.03c-0.3,0.02-0.58,0.06-0.84,0.14c-0.26,0.07-0.49,0.18-0.67,0.32
			c-0.18,0.14-0.27,0.33-0.27,0.58c0,0.16,0.04,0.3,0.11,0.41c0.07,0.11,0.16,0.2,0.28,0.28c0.11,0.08,0.24,0.13,0.39,0.16
			c0.14,0.03,0.29,0.05,0.43,0.05c0.59,0,1.03-0.14,1.31-0.42c0.28-0.28,0.42-0.67,0.42-1.15V57.36z"/>
		<path class="st0" d="M190.61,49.6h1.72v10.84h-1.72V49.6z"/>
		<path class="st0" d="M197.99,55.46c-0.33-0.47-0.78-0.7-1.35-0.7c-0.23,0-0.45,0.06-0.67,0.17c-0.22,0.11-0.33,0.3-0.33,0.56
			c0,0.21,0.09,0.36,0.27,0.46c0.18,0.1,0.41,0.18,0.69,0.24c0.28,0.07,0.58,0.14,0.9,0.21c0.32,0.07,0.62,0.18,0.9,0.33
			c0.28,0.15,0.51,0.35,0.69,0.61c0.18,0.26,0.27,0.61,0.27,1.06c0,0.41-0.09,0.76-0.27,1.04c-0.18,0.28-0.41,0.51-0.69,0.68
			c-0.28,0.17-0.6,0.3-0.95,0.37c-0.35,0.08-0.71,0.11-1.06,0.11c-0.54,0-1.03-0.08-1.48-0.23c-0.45-0.15-0.85-0.43-1.2-0.83
			l1.15-1.08c0.22,0.25,0.46,0.45,0.71,0.61c0.25,0.16,0.56,0.24,0.93,0.24c0.12,0,0.25-0.01,0.39-0.04
			c0.13-0.03,0.26-0.08,0.37-0.14c0.11-0.07,0.21-0.15,0.28-0.25c0.07-0.1,0.11-0.22,0.11-0.35c0-0.24-0.09-0.42-0.27-0.53
			c-0.18-0.11-0.41-0.21-0.69-0.28c-0.28-0.07-0.58-0.14-0.9-0.2c-0.32-0.06-0.62-0.16-0.9-0.3c-0.28-0.14-0.51-0.33-0.69-0.58
			c-0.18-0.25-0.27-0.59-0.27-1.03c0-0.38,0.08-0.71,0.24-1c0.16-0.28,0.37-0.51,0.62-0.7c0.26-0.18,0.55-0.32,0.89-0.4
			c0.33-0.09,0.67-0.13,1.02-0.13c0.46,0,0.91,0.08,1.36,0.24c0.45,0.16,0.81,0.43,1.09,0.81L197.99,55.46z"/>
	</g>
	<path class="st1" d="M164.78,16.55l-6.14-6.14l-8.9,8.9h0l8.9,8.9l6.14-6.14C166.3,20.54,166.3,18.07,164.78,16.55z"/>
	<path class="st2" d="M140.85,10.41l-6.14,6.14c-1.52,1.52-1.52,3.99,0,5.51l6.14,6.14l8.9-8.9L140.85,10.41z"/>
	<path class="st3" d="M152.37,4.14c-1.45-1.45-3.8-1.45-5.25,0l-6.27,6.27l8.9,8.9l8.9-8.9L152.37,4.14z"/>
	<path class="st0" d="M25.29,25.61h9.1c0.23,0,0.43,0.14,0.51,0.35l8.7,23.34h0.14l8.06-23.33c0.08-0.22,0.28-0.37,0.51-0.37h8.24
		c1.06,0,1.79,1.07,1.4,2.06L49.12,60.16c-0.08,0.21-0.28,0.34-0.5,0.34H37.93c-0.22,0-0.42-0.13-0.5-0.33L23.96,27.6
		C23.56,26.65,24.26,25.61,25.29,25.61z"/>
	<path class="st0" d="M93.45,56.31l-3.57-3.75l-0.1-0.1l-1.88-2.1c-0.4-0.45-1.22-0.59-1.75-0.3c0,0-1.77,1.17-2.41,1.4
		c-0.71,0.25-1.48,0.42-2.35,0.42c-2.73,0-4.85-0.81-6.35-2.44c-1.51-1.63-2.26-3.76-2.26-6.39c0-2.63,0.75-4.76,2.26-6.39
		c1.51-1.63,3.63-2.44,6.35-2.44c0.91,0,1.77,0.17,2.59,0.52c0,0,0.01,0,0.01,0.01c0.18,0.08,0.33,0.16,0.47,0.24l1.74,1.08
		c0.53,0.29,1.34,0.15,1.75-0.3l2.15-2.41l0.83-0.92l0,0l2.51-2.64c0.21-0.22,0.2-0.57-0.02-0.78c-1.59-1.52-3.43-2.59-5.53-3.23
		c-2.27-0.69-4.44-1.04-6.5-1.04c-2.68,0-5.21,0.43-7.58,1.29c-2.37,0.86-4.43,2.1-6.17,3.7c-1.75,1.61-3.12,3.53-4.13,5.78
		c-1.01,2.25-1.51,4.76-1.51,7.54c0,2.78,0.5,5.29,1.51,7.54c1.01,2.25,2.38,4.18,4.13,5.78c1.75,1.6,3.81,2.84,6.17,3.7
		c2.37,0.86,4.89,1.29,7.58,1.29c2.06,0,4.22-0.35,6.5-1.04c2.1-0.64,3.94-1.72,5.53-3.23C93.65,56.88,93.66,56.53,93.45,56.31z"/>
	<path class="st0" d="M128.79,35.05c-0.48-2.23-1.33-4.1-2.55-5.64c-1.22-1.53-2.85-2.69-4.88-3.48c-2.03-0.79-4.63-1.19-7.79-1.19
		c-2.87,0-5.65,0.47-8.33,1.4c-2.49,0.87-4.7,2.14-6.61,3.82c-0.24,0.21-0.24,0.57-0.03,0.79l1.27,1.3l1.11,1.24l1.68,1.88
		c0.4,0.45,1.22,0.59,1.75,0.3l1.74-1.08c0.17-0.09,0.5-0.34,0.96-0.64c0.65-0.43,1.56-0.96,2.6-1.28c0.94-0.26,1.94-0.4,3-0.4
		c1.87,0,3.48,0.56,4.85,1.69c0.92,0.76,1.52,1.69,1.83,2.8c0,0,0,0,0,0c0.25,0.82,0.25,1.76,0.25,1.76h-0.58
		c-1.33,0.01-2.76,0.03-4.3,0.07c-1.75,0.05-3.49,0.19-5.24,0.43c-1.75,0.24-3.44,0.61-5.06,1.11c-1.63,0.5-3.08,1.21-4.34,2.12
		c-1.27,0.91-2.27,2.06-3.02,3.45c-0.74,1.39-1.11,3.09-1.11,5.1c0,1.77,0.34,3.33,1.01,4.67c0.67,1.34,1.58,2.47,2.73,3.38
		c1.15,0.91,2.48,1.59,3.98,2.05c1.51,0.45,3.08,0.68,4.7,0.68c2.2,0,4.3-0.41,6.28-1.22c1.99-0.81,3.58-2.15,4.77-4.02h0.14v3.84
		c0,0.3,0.24,0.54,0.54,0.54h9.37V42.77C129.5,39.85,129.26,37.28,128.79,35.05z M119.59,45.75v0.66v1.09c0,1.1-0.23,2.06-0.68,2.87
		c-0.46,0.81-1.07,1.48-1.83,2.01c-0.77,0.53-1.64,0.93-2.62,1.22c-0.98,0.29-2,0.43-3.05,0.43c-1.2,0-2.35-0.31-3.45-0.93
		c-1.1-0.62-1.65-1.58-1.65-2.87c0-1.2,0.4-2.13,1.18-2.8c0.79-0.67,1.75-1.17,2.87-1.51c1.12-0.34,2.3-0.54,3.52-0.61
		c1.22-0.07,2.24-0.11,3.05-0.11h1.38h0.73h0.54V45.75z"/>
</g>
</svg>
